<?xml version="1.0" encoding="UTF-8" standalone="no"?>
<svg width="26px" height="115px" viewBox="0 0 26 115" version="1.1" xmlns="http://www.w3.org/2000/svg" xmlns:xlink="http://www.w3.org/1999/xlink">
    <!-- Generator: Sketch 3.7 (28169) - http://www.bohemiancoding.com/sketch -->
    <title>input-state</title>
    <desc>Created with Sketch.</desc>
    <defs>
        <rect id="path-1" x="0" y="0" width="23" height="13" rx="2"></rect>
        <mask id="mask-2" maskContentUnits="userSpaceOnUse" maskUnits="objectBoundingBox" x="0" y="0" width="23" height="13" fill="white">
            <use xlink:href="#path-1"></use>
        </mask>
        <rect id="path-3" x="0" y="0" width="23" height="13" rx="2"></rect>
        <mask id="mask-4" maskContentUnits="userSpaceOnUse" maskUnits="objectBoundingBox" x="0" y="0" width="23" height="13" fill="white">
            <use xlink:href="#path-3"></use>
        </mask>
        <rect id="path-5" x="0" y="0" width="23" height="13" rx="2"></rect>
        <mask id="mask-6" maskContentUnits="userSpaceOnUse" maskUnits="objectBoundingBox" x="0" y="0" width="23" height="13" fill="white">
            <use xlink:href="#path-5"></use>
        </mask>
    </defs>
    <g id="phone" stroke="none" stroke-width="1" fill="none" fill-rule="evenodd">
        <g id="address2-copy-2"></g>
        <g id="Group-10" transform="translate(1.000000, 3.000000)">
            <use id="Rectangle-52" stroke="#D8D8D8" mask="url(#mask-2)" stroke-width="2" xlink:href="#path-1"></use>
            <g id="rivets" transform="translate(2.000000, 2.000000)" fill="#D8D8D8">
                <circle id="Oval-19" cx="0.5" cy="0.5" r="0.5"></circle>
                <circle id="Oval-19-Copy" cx="18.5" cy="0.5" r="0.5"></circle>
                <circle id="Oval-19-Copy-2" cx="18.5" cy="8.5" r="0.5"></circle>
                <circle id="Oval-19-Copy-3" cx="0.5" cy="8.5" r="0.5"></circle>
            </g>
            <g id="tree" transform="translate(9.000000, 3.000000)" fill="#D8D8D8">
                <polygon id="Triangle-1" points="2.44273136 0.436842531 4.10939802 2.31315747 0.77606469 2.31315747"></polygon>
                <polygon id="Triangle-1-Copy" points="2.44273136 1 4.88546271 3.75 0 3.75"></polygon>
                <polygon id="Triangle-1-Copy-2" points="2.44273136 2 4.88546271 4.75 0 4.75"></polygon>
                <rect id="Rectangle-54" x="2" y="4" width="1" height="2"></rect>
            </g>
            <rect id="Rectangle-53" fill="#D8D8D8" x="7" y="2" width="9" height="1"></rect>
            <rect id="Rectangle-53-Copy" fill="#D8D8D8" x="7" y="10" width="9" height="1"></rect>
            <path d="M2,5.03817447 L2.83449271,5.03817447 C3.2147543,5.03817447 3.49077605,5.09179997 3.66256625,5.19905259 C3.83435646,5.3063052 3.92025027,5.47687672 3.92025027,5.71077225 C3.92025027,5.86953035 3.88265262,5.999807 3.8074562,6.10160609 C3.73225978,6.20340518 3.63230505,6.26460491 3.50758904,6.28520711 L3.50758904,6.30338543 C3.67754518,6.34095414 3.80011962,6.41124293 3.87531604,6.51425392 C3.95051247,6.6172649 3.98811012,6.75420687 3.98811012,6.92508391 C3.98811012,7.1674627 3.89977093,7.35651532 3.7230899,7.49224745 C3.54640888,7.62797957 3.30645641,7.69584461 3.00322531,7.69584461 L2,7.69584461 L2,5.03817447 Z M2.56855548,6.0906991 L2.89868446,6.0906991 C3.05274543,6.0906991 3.16431568,6.06706752 3.23339857,6.01980366 C3.30248146,5.9725398 3.33702239,5.89437381 3.33702239,5.78530335 C3.33702239,5.68350426 3.29942475,5.61048875 3.22422832,5.56625462 C3.1490319,5.52202049 3.03012552,5.49990375 2.86750561,5.49990375 L2.56855548,5.49990375 L2.56855548,6.0906991 Z M2.56855548,6.53788573 L2.56855548,7.23047966 L2.93903356,7.23047966 C3.09553994,7.23047966 3.21108393,7.20078871 3.285669,7.1414059 C3.36025406,7.0820231 3.39754604,6.99113242 3.39754604,6.86873113 C3.39754604,6.64816643 3.23859664,6.53788573 2.92069306,6.53788573 L2.56855548,6.53788573 Z M6.21912181,6.95780489 C6.21912181,7.19775989 6.13200531,7.38681251 5.95776969,7.52496842 C5.78353408,7.66312433 5.54113624,7.73220125 5.2305689,7.73220125 C4.94445568,7.73220125 4.69135932,7.67887871 4.47127223,7.57223205 L4.47127223,7.04869648 C4.65223273,7.12868148 4.80537437,7.1850337 4.93070174,7.21775484 C5.05602911,7.25047598 5.17065608,7.2668363 5.2745861,7.2668363 C5.39930211,7.2668363 5.49497743,7.24320472 5.56161491,7.19594086 C5.62825239,7.14867699 5.66157063,7.0783882 5.66157063,6.98507236 C5.66157063,6.93296092 5.64689838,6.88660668 5.61755343,6.84600823 C5.58820849,6.80540978 5.54510874,6.76632679 5.48825291,6.72875808 C5.43139708,6.69118936 5.31554742,6.63120151 5.14070045,6.54879272 C4.97685784,6.4724434 4.85397772,6.39912492 4.77205642,6.32883507 C4.69013511,6.25854522 4.62472132,6.17674361 4.57581308,6.08342777 C4.52690483,5.99011194 4.50245108,5.88104312 4.50245108,5.75621804 C4.50245108,5.52111062 4.5828428,5.33629956 4.74362864,5.20177933 C4.90441449,5.06725911 5.12663798,5 5.41030579,5 C5.54969428,5 5.68266157,5.01636032 5.80921165,5.04908146 C5.93576173,5.0818026 6.06811767,5.12785388 6.20628346,5.18723668 L6.02287846,5.62533415 C5.87982186,5.56716324 5.76152682,5.5265654 5.6679898,5.50353942 C5.57445279,5.48051343 5.48244554,5.46900061 5.39196529,5.46900061 C5.28436716,5.46900061 5.20183574,5.49384407 5.14436855,5.54353172 C5.08690137,5.59321937 5.05816821,5.65805472 5.05816821,5.73803973 C5.05816821,5.78772738 5.06978374,5.83105194 5.09301515,5.8680147 C5.11624657,5.90497747 5.15323287,5.9407278 5.20397517,5.97526678 C5.25471748,6.00980576 5.37484654,6.07191439 5.56436598,6.16159454 C5.81502073,6.28036015 5.98680835,6.39942694 6.07973401,6.5187985 C6.17265967,6.63817005 6.21912181,6.78450405 6.21912181,6.95780489 L6.21912181,6.95780489 Z M7.85223322,7.69584461 L7.28367775,7.69584461 L7.28367775,5.50717508 L6.55555993,5.50717508 L6.55555993,5.03817447 L8.58035104,5.03817447 L8.58035104,5.50717508 L7.85223322,5.50717508 L7.85223322,7.69584461 Z" id="BST" fill="#D8D8D8"></path>
            <path d="M15.3296862,7.69584461 L14.7629648,7.69584461 L14.7629648,6.15795888 L14.7684669,5.90528025 L14.7776372,5.62896981 C14.6834888,5.72228565 14.618075,5.78348538 14.5813938,5.81257083 L14.2732734,6.05797813 L14,5.71986141 L14.8638375,5.03817447 L15.3296862,5.03817447 L15.3296862,7.69584461 Z M18.0595595,7.69584461 L16.1851604,7.69584461 L16.1851604,7.30501077 L16.8582568,6.63059516 C17.0575579,6.42820887 17.1877741,6.28793425 17.2489094,6.20976709 C17.3100447,6.13159993 17.3540615,6.05919035 17.380961,5.99253618 C17.4078605,5.92588201 17.4213101,5.8568051 17.4213101,5.78530335 C17.4213101,5.67865669 17.3916599,5.59927882 17.3323587,5.54716738 C17.2730574,5.49505594 17.1938884,5.46900061 17.0948492,5.46900061 C16.9909192,5.46900061 16.8900475,5.49263219 16.792231,5.53989606 C16.6944145,5.58715992 16.5923201,5.65441902 16.4859446,5.74167539 L16.1778242,5.37992685 C16.3098765,5.26843261 16.419307,5.18966069 16.5061192,5.14360871 C16.5929313,5.09755674 16.6876896,5.06210938 16.7903969,5.03726555 C16.8931042,5.01242173 17.0080369,5 17.1351983,5 C17.302709,5 17.4506542,5.03029689 17.5790384,5.09089159 C17.7074225,5.15148629 17.8070716,5.23631759 17.8779885,5.34538805 C17.9489055,5.4544585 17.9843634,5.57928171 17.9843634,5.71986141 C17.9843634,5.8422627 17.9626607,5.95708792 17.9192546,6.06434054 C17.8758486,6.17159315 17.8086008,6.28157088 17.7175092,6.39427702 C17.6264176,6.50698315 17.4659398,6.66755669 17.236071,6.87600245 L16.8912697,7.19775869 L16.8912697,7.22320833 L18.0595595,7.22320833 L18.0595595,7.69584461 Z M20.211707,5.63260548 C20.211707,5.79863495 20.1609655,5.93981848 20.0594809,6.0561603 C19.9579963,6.17250212 19.8155531,6.25248592 19.6321472,6.2961141 L19.6321472,6.30702109 C19.8485662,6.33368276 20.0124064,6.39882108 20.1236726,6.50243801 C20.2349389,6.60605494 20.2905712,6.74572363 20.2905712,6.92144825 C20.2905712,7.17715787 20.1970355,7.37620847 20.0099615,7.51860601 C19.8228875,7.66100355 19.5557302,7.73220125 19.2084817,7.73220125 C18.9174777,7.73220125 18.6594905,7.68433216 18.4345126,7.58859253 L18.4345126,7.11050276 C18.5384426,7.1626142 18.652764,7.20502985 18.77748,7.23775099 C18.902196,7.27047213 19.0256874,7.28683245 19.1479581,7.28683245 C19.3350321,7.28683245 19.4731958,7.25532368 19.5624533,7.19230519 C19.6517109,7.12928671 19.696339,7.02809508 19.696339,6.88872728 C19.696339,6.7639022 19.6449861,6.67543527 19.5422788,6.62332383 C19.4395715,6.57121239 19.2757313,6.54515706 19.0507534,6.54515706 L18.8471739,6.54515706 L18.8471739,6.11433091 L19.0544215,6.11433091 C19.2622815,6.11433091 19.4142005,6.08736668 19.5101829,6.0334374 C19.6061653,5.97950812 19.6541558,5.88710259 19.6541558,5.75621804 C19.6541558,5.55504365 19.5269963,5.45445796 19.2726734,5.45445796 C19.1846386,5.45445796 19.0950767,5.46900047 19.0039851,5.49808592 C18.9128935,5.52717138 18.8117161,5.57746422 18.7004499,5.64896597 L18.4381807,5.26176778 C18.6827219,5.08725506 18.974333,5 19.3130225,5 C19.5905768,5 19.8097436,5.05574629 19.9705294,5.16724053 C20.1313153,5.27873477 20.211707,5.43385487 20.211707,5.63260548 L20.211707,5.63260548 Z" id="123" fill="#D8D8D8"></path>
        </g>
        <g id="Group-10-Copy" transform="translate(1.000000, 51.000000)">
            <use id="Rectangle-52" stroke="#941469" mask="url(#mask-4)" stroke-width="2" xlink:href="#path-3"></use>
            <g id="rivets" transform="translate(2.000000, 2.000000)" fill="#941469">
                <circle id="Oval-19" cx="0.5" cy="0.5" r="0.5"></circle>
                <circle id="Oval-19-Copy" cx="18.5" cy="0.5" r="0.5"></circle>
                <circle id="Oval-19-Copy-2" cx="18.5" cy="8.5" r="0.5"></circle>
                <circle id="Oval-19-Copy-3" cx="0.5" cy="8.5" r="0.5"></circle>
            </g>
            <g id="tree" transform="translate(9.000000, 3.000000)" fill="#941469">
                <polygon id="Triangle-1" points="2.44273136 0.436842531 4.10939802 2.31315747 0.77606469 2.31315747"></polygon>
                <polygon id="Triangle-1-Copy" points="2.44273136 1 4.88546271 3.75 0 3.75"></polygon>
                <polygon id="Triangle-1-Copy-2" points="2.44273136 2 4.88546271 4.75 0 4.75"></polygon>
                <rect id="Rectangle-54" x="2" y="4" width="1" height="2"></rect>
            </g>
            <rect id="Rectangle-53" fill="#941469" x="7" y="2" width="9" height="1"></rect>
            <rect id="Rectangle-53-Copy" fill="#941469" x="7" y="10" width="9" height="1"></rect>
            <path d="M2,5.03817447 L2.83449271,5.03817447 C3.2147543,5.03817447 3.49077605,5.09179997 3.66256625,5.19905259 C3.83435646,5.3063052 3.92025027,5.47687672 3.92025027,5.71077225 C3.92025027,5.86953035 3.88265262,5.999807 3.8074562,6.10160609 C3.73225978,6.20340518 3.63230505,6.26460491 3.50758904,6.28520711 L3.50758904,6.30338543 C3.67754518,6.34095414 3.80011962,6.41124293 3.87531604,6.51425392 C3.95051247,6.6172649 3.98811012,6.75420687 3.98811012,6.92508391 C3.98811012,7.1674627 3.89977093,7.35651532 3.7230899,7.49224745 C3.54640888,7.62797957 3.30645641,7.69584461 3.00322531,7.69584461 L2,7.69584461 L2,5.03817447 Z M2.56855548,6.0906991 L2.89868446,6.0906991 C3.05274543,6.0906991 3.16431568,6.06706752 3.23339857,6.01980366 C3.30248146,5.9725398 3.33702239,5.89437381 3.33702239,5.78530335 C3.33702239,5.68350426 3.29942475,5.61048875 3.22422832,5.56625462 C3.1490319,5.52202049 3.03012552,5.49990375 2.86750561,5.49990375 L2.56855548,5.49990375 L2.56855548,6.0906991 Z M2.56855548,6.53788573 L2.56855548,7.23047966 L2.93903356,7.23047966 C3.09553994,7.23047966 3.21108393,7.20078871 3.285669,7.1414059 C3.36025406,7.0820231 3.39754604,6.99113242 3.39754604,6.86873113 C3.39754604,6.64816643 3.23859664,6.53788573 2.92069306,6.53788573 L2.56855548,6.53788573 Z M6.21912181,6.95780489 C6.21912181,7.19775989 6.13200531,7.38681251 5.95776969,7.52496842 C5.78353408,7.66312433 5.54113624,7.73220125 5.2305689,7.73220125 C4.94445568,7.73220125 4.69135932,7.67887871 4.47127223,7.57223205 L4.47127223,7.04869648 C4.65223273,7.12868148 4.80537437,7.1850337 4.93070174,7.21775484 C5.05602911,7.25047598 5.17065608,7.2668363 5.2745861,7.2668363 C5.39930211,7.2668363 5.49497743,7.24320472 5.56161491,7.19594086 C5.62825239,7.14867699 5.66157063,7.0783882 5.66157063,6.98507236 C5.66157063,6.93296092 5.64689838,6.88660668 5.61755343,6.84600823 C5.58820849,6.80540978 5.54510874,6.76632679 5.48825291,6.72875808 C5.43139708,6.69118936 5.31554742,6.63120151 5.14070045,6.54879272 C4.97685784,6.4724434 4.85397772,6.39912492 4.77205642,6.32883507 C4.69013511,6.25854522 4.62472132,6.17674361 4.57581308,6.08342777 C4.52690483,5.99011194 4.50245108,5.88104312 4.50245108,5.75621804 C4.50245108,5.52111062 4.5828428,5.33629956 4.74362864,5.20177933 C4.90441449,5.06725911 5.12663798,5 5.41030579,5 C5.54969428,5 5.68266157,5.01636032 5.80921165,5.04908146 C5.93576173,5.0818026 6.06811767,5.12785388 6.20628346,5.18723668 L6.02287846,5.62533415 C5.87982186,5.56716324 5.76152682,5.5265654 5.6679898,5.50353942 C5.57445279,5.48051343 5.48244554,5.46900061 5.39196529,5.46900061 C5.28436716,5.46900061 5.20183574,5.49384407 5.14436855,5.54353172 C5.08690137,5.59321937 5.05816821,5.65805472 5.05816821,5.73803973 C5.05816821,5.78772738 5.06978374,5.83105194 5.09301515,5.8680147 C5.11624657,5.90497747 5.15323287,5.9407278 5.20397517,5.97526678 C5.25471748,6.00980576 5.37484654,6.07191439 5.56436598,6.16159454 C5.81502073,6.28036015 5.98680835,6.39942694 6.07973401,6.5187985 C6.17265967,6.63817005 6.21912181,6.78450405 6.21912181,6.95780489 L6.21912181,6.95780489 Z M7.85223322,7.69584461 L7.28367775,7.69584461 L7.28367775,5.50717508 L6.55555993,5.50717508 L6.55555993,5.03817447 L8.58035104,5.03817447 L8.58035104,5.50717508 L7.85223322,5.50717508 L7.85223322,7.69584461 Z" id="BST" fill="#941469"></path>
            <path d="M15.3296862,7.69584461 L14.7629648,7.69584461 L14.7629648,6.15795888 L14.7684669,5.90528025 L14.7776372,5.62896981 C14.6834888,5.72228565 14.618075,5.78348538 14.5813938,5.81257083 L14.2732734,6.05797813 L14,5.71986141 L14.8638375,5.03817447 L15.3296862,5.03817447 L15.3296862,7.69584461 Z M18.0595595,7.69584461 L16.1851604,7.69584461 L16.1851604,7.30501077 L16.8582568,6.63059516 C17.0575579,6.42820887 17.1877741,6.28793425 17.2489094,6.20976709 C17.3100447,6.13159993 17.3540615,6.05919035 17.380961,5.99253618 C17.4078605,5.92588201 17.4213101,5.8568051 17.4213101,5.78530335 C17.4213101,5.67865669 17.3916599,5.59927882 17.3323587,5.54716738 C17.2730574,5.49505594 17.1938884,5.46900061 17.0948492,5.46900061 C16.9909192,5.46900061 16.8900475,5.49263219 16.792231,5.53989606 C16.6944145,5.58715992 16.5923201,5.65441902 16.4859446,5.74167539 L16.1778242,5.37992685 C16.3098765,5.26843261 16.419307,5.18966069 16.5061192,5.14360871 C16.5929313,5.09755674 16.6876896,5.06210938 16.7903969,5.03726555 C16.8931042,5.01242173 17.0080369,5 17.1351983,5 C17.302709,5 17.4506542,5.03029689 17.5790384,5.09089159 C17.7074225,5.15148629 17.8070716,5.23631759 17.8779885,5.34538805 C17.9489055,5.4544585 17.9843634,5.57928171 17.9843634,5.71986141 C17.9843634,5.8422627 17.9626607,5.95708792 17.9192546,6.06434054 C17.8758486,6.17159315 17.8086008,6.28157088 17.7175092,6.39427702 C17.6264176,6.50698315 17.4659398,6.66755669 17.236071,6.87600245 L16.8912697,7.19775869 L16.8912697,7.22320833 L18.0595595,7.22320833 L18.0595595,7.69584461 Z M20.211707,5.63260548 C20.211707,5.79863495 20.1609655,5.93981848 20.0594809,6.0561603 C19.9579963,6.17250212 19.8155531,6.25248592 19.6321472,6.2961141 L19.6321472,6.30702109 C19.8485662,6.33368276 20.0124064,6.39882108 20.1236726,6.50243801 C20.2349389,6.60605494 20.2905712,6.74572363 20.2905712,6.92144825 C20.2905712,7.17715787 20.1970355,7.37620847 20.0099615,7.51860601 C19.8228875,7.66100355 19.5557302,7.73220125 19.2084817,7.73220125 C18.9174777,7.73220125 18.6594905,7.68433216 18.4345126,7.58859253 L18.4345126,7.11050276 C18.5384426,7.1626142 18.652764,7.20502985 18.77748,7.23775099 C18.902196,7.27047213 19.0256874,7.28683245 19.1479581,7.28683245 C19.3350321,7.28683245 19.4731958,7.25532368 19.5624533,7.19230519 C19.6517109,7.12928671 19.696339,7.02809508 19.696339,6.88872728 C19.696339,6.7639022 19.6449861,6.67543527 19.5422788,6.62332383 C19.4395715,6.57121239 19.2757313,6.54515706 19.0507534,6.54515706 L18.8471739,6.54515706 L18.8471739,6.11433091 L19.0544215,6.11433091 C19.2622815,6.11433091 19.4142005,6.08736668 19.5101829,6.0334374 C19.6061653,5.97950812 19.6541558,5.88710259 19.6541558,5.75621804 C19.6541558,5.55504365 19.5269963,5.45445796 19.2726734,5.45445796 C19.1846386,5.45445796 19.0950767,5.46900047 19.0039851,5.49808592 C18.9128935,5.52717138 18.8117161,5.57746422 18.7004499,5.64896597 L18.4381807,5.26176778 C18.6827219,5.08725506 18.974333,5 19.3130225,5 C19.5905768,5 19.8097436,5.05574629 19.9705294,5.16724053 C20.1313153,5.27873477 20.211707,5.43385487 20.211707,5.63260548 L20.211707,5.63260548 Z" id="123" fill="#941469"></path>
        </g>
        <g id="Group-10-Copy-2" transform="translate(1.000000, 99.000000)">
            <use id="Rectangle-52" stroke="#15D239" mask="url(#mask-6)" stroke-width="2" xlink:href="#path-5"></use>
            <g id="rivets" transform="translate(2.000000, 2.000000)" fill="#15D239">
                <circle id="Oval-19" cx="0.5" cy="0.5" r="0.5"></circle>
                <circle id="Oval-19-Copy" cx="18.5" cy="0.5" r="0.5"></circle>
                <circle id="Oval-19-Copy-2" cx="18.5" cy="8.5" r="0.5"></circle>
                <circle id="Oval-19-Copy-3" cx="0.5" cy="8.5" r="0.5"></circle>
            </g>
            <g id="tree" transform="translate(9.000000, 3.000000)" fill="#15D239">
                <polygon id="Triangle-1" points="2.44273136 0.436842531 4.10939802 2.31315747 0.77606469 2.31315747"></polygon>
                <polygon id="Triangle-1-Copy" points="2.44273136 1 4.88546271 3.75 0 3.75"></polygon>
                <polygon id="Triangle-1-Copy-2" points="2.44273136 2 4.88546271 4.75 0 4.75"></polygon>
                <rect id="Rectangle-54" x="2" y="4" width="1" height="2"></rect>
            </g>
            <rect id="Rectangle-53" fill="#15D239" x="7" y="2" width="9" height="1"></rect>
            <rect id="Rectangle-53-Copy" fill="#15D239" x="7" y="10" width="9" height="1"></rect>
            <path d="M2,5.03817447 L2.83449271,5.03817447 C3.2147543,5.03817447 3.49077605,5.09179997 3.66256625,5.19905259 C3.83435646,5.3063052 3.92025027,5.47687672 3.92025027,5.71077225 C3.92025027,5.86953035 3.88265262,5.999807 3.8074562,6.10160609 C3.73225978,6.20340518 3.63230505,6.26460491 3.50758904,6.28520711 L3.50758904,6.30338543 C3.67754518,6.34095414 3.80011962,6.41124293 3.87531604,6.51425392 C3.95051247,6.6172649 3.98811012,6.75420687 3.98811012,6.92508391 C3.98811012,7.1674627 3.89977093,7.35651532 3.7230899,7.49224745 C3.54640888,7.62797957 3.30645641,7.69584461 3.00322531,7.69584461 L2,7.69584461 L2,5.03817447 Z M2.56855548,6.0906991 L2.89868446,6.0906991 C3.05274543,6.0906991 3.16431568,6.06706752 3.23339857,6.01980366 C3.30248146,5.9725398 3.33702239,5.89437381 3.33702239,5.78530335 C3.33702239,5.68350426 3.29942475,5.61048875 3.22422832,5.56625462 C3.1490319,5.52202049 3.03012552,5.49990375 2.86750561,5.49990375 L2.56855548,5.49990375 L2.56855548,6.0906991 Z M2.56855548,6.53788573 L2.56855548,7.23047966 L2.93903356,7.23047966 C3.09553994,7.23047966 3.21108393,7.20078871 3.285669,7.1414059 C3.36025406,7.0820231 3.39754604,6.99113242 3.39754604,6.86873113 C3.39754604,6.64816643 3.23859664,6.53788573 2.92069306,6.53788573 L2.56855548,6.53788573 Z M6.21912181,6.95780489 C6.21912181,7.19775989 6.13200531,7.38681251 5.95776969,7.52496842 C5.78353408,7.66312433 5.54113624,7.73220125 5.2305689,7.73220125 C4.94445568,7.73220125 4.69135932,7.67887871 4.47127223,7.57223205 L4.47127223,7.04869648 C4.65223273,7.12868148 4.80537437,7.1850337 4.93070174,7.21775484 C5.05602911,7.25047598 5.17065608,7.2668363 5.2745861,7.2668363 C5.39930211,7.2668363 5.49497743,7.24320472 5.56161491,7.19594086 C5.62825239,7.14867699 5.66157063,7.0783882 5.66157063,6.98507236 C5.66157063,6.93296092 5.64689838,6.88660668 5.61755343,6.84600823 C5.58820849,6.80540978 5.54510874,6.76632679 5.48825291,6.72875808 C5.43139708,6.69118936 5.31554742,6.63120151 5.14070045,6.54879272 C4.97685784,6.4724434 4.85397772,6.39912492 4.77205642,6.32883507 C4.69013511,6.25854522 4.62472132,6.17674361 4.57581308,6.08342777 C4.52690483,5.99011194 4.50245108,5.88104312 4.50245108,5.75621804 C4.50245108,5.52111062 4.5828428,5.33629956 4.74362864,5.20177933 C4.90441449,5.06725911 5.12663798,5 5.41030579,5 C5.54969428,5 5.68266157,5.01636032 5.80921165,5.04908146 C5.93576173,5.0818026 6.06811767,5.12785388 6.20628346,5.18723668 L6.02287846,5.62533415 C5.87982186,5.56716324 5.76152682,5.5265654 5.6679898,5.50353942 C5.57445279,5.48051343 5.48244554,5.46900061 5.39196529,5.46900061 C5.28436716,5.46900061 5.20183574,5.49384407 5.14436855,5.54353172 C5.08690137,5.59321937 5.05816821,5.65805472 5.05816821,5.73803973 C5.05816821,5.78772738 5.06978374,5.83105194 5.09301515,5.8680147 C5.11624657,5.90497747 5.15323287,5.9407278 5.20397517,5.97526678 C5.25471748,6.00980576 5.37484654,6.07191439 5.56436598,6.16159454 C5.81502073,6.28036015 5.98680835,6.39942694 6.07973401,6.5187985 C6.17265967,6.63817005 6.21912181,6.78450405 6.21912181,6.95780489 L6.21912181,6.95780489 Z M7.85223322,7.69584461 L7.28367775,7.69584461 L7.28367775,5.50717508 L6.55555993,5.50717508 L6.55555993,5.03817447 L8.58035104,5.03817447 L8.58035104,5.50717508 L7.85223322,5.50717508 L7.85223322,7.69584461 Z" id="BST" fill="#15D239"></path>
            <path d="M15.3296862,7.69584461 L14.7629648,7.69584461 L14.7629648,6.15795888 L14.7684669,5.90528025 L14.7776372,5.62896981 C14.6834888,5.72228565 14.618075,5.78348538 14.5813938,5.81257083 L14.2732734,6.05797813 L14,5.71986141 L14.8638375,5.03817447 L15.3296862,5.03817447 L15.3296862,7.69584461 Z M18.0595595,7.69584461 L16.1851604,7.69584461 L16.1851604,7.30501077 L16.8582568,6.63059516 C17.0575579,6.42820887 17.1877741,6.28793425 17.2489094,6.20976709 C17.3100447,6.13159993 17.3540615,6.05919035 17.380961,5.99253618 C17.4078605,5.92588201 17.4213101,5.8568051 17.4213101,5.78530335 C17.4213101,5.67865669 17.3916599,5.59927882 17.3323587,5.54716738 C17.2730574,5.49505594 17.1938884,5.46900061 17.0948492,5.46900061 C16.9909192,5.46900061 16.8900475,5.49263219 16.792231,5.53989606 C16.6944145,5.58715992 16.5923201,5.65441902 16.4859446,5.74167539 L16.1778242,5.37992685 C16.3098765,5.26843261 16.419307,5.18966069 16.5061192,5.14360871 C16.5929313,5.09755674 16.6876896,5.06210938 16.7903969,5.03726555 C16.8931042,5.01242173 17.0080369,5 17.1351983,5 C17.302709,5 17.4506542,5.03029689 17.5790384,5.09089159 C17.7074225,5.15148629 17.8070716,5.23631759 17.8779885,5.34538805 C17.9489055,5.4544585 17.9843634,5.57928171 17.9843634,5.71986141 C17.9843634,5.8422627 17.9626607,5.95708792 17.9192546,6.06434054 C17.8758486,6.17159315 17.8086008,6.28157088 17.7175092,6.39427702 C17.6264176,6.50698315 17.4659398,6.66755669 17.236071,6.87600245 L16.8912697,7.19775869 L16.8912697,7.22320833 L18.0595595,7.22320833 L18.0595595,7.69584461 Z M20.211707,5.63260548 C20.211707,5.79863495 20.1609655,5.93981848 20.0594809,6.0561603 C19.9579963,6.17250212 19.8155531,6.25248592 19.6321472,6.2961141 L19.6321472,6.30702109 C19.8485662,6.33368276 20.0124064,6.39882108 20.1236726,6.50243801 C20.2349389,6.60605494 20.2905712,6.74572363 20.2905712,6.92144825 C20.2905712,7.17715787 20.1970355,7.37620847 20.0099615,7.51860601 C19.8228875,7.66100355 19.5557302,7.73220125 19.2084817,7.73220125 C18.9174777,7.73220125 18.6594905,7.68433216 18.4345126,7.58859253 L18.4345126,7.11050276 C18.5384426,7.1626142 18.652764,7.20502985 18.77748,7.23775099 C18.902196,7.27047213 19.0256874,7.28683245 19.1479581,7.28683245 C19.3350321,7.28683245 19.4731958,7.25532368 19.5624533,7.19230519 C19.6517109,7.12928671 19.696339,7.02809508 19.696339,6.88872728 C19.696339,6.7639022 19.6449861,6.67543527 19.5422788,6.62332383 C19.4395715,6.57121239 19.2757313,6.54515706 19.0507534,6.54515706 L18.8471739,6.54515706 L18.8471739,6.11433091 L19.0544215,6.11433091 C19.2622815,6.11433091 19.4142005,6.08736668 19.5101829,6.0334374 C19.6061653,5.97950812 19.6541558,5.88710259 19.6541558,5.75621804 C19.6541558,5.55504365 19.5269963,5.45445796 19.2726734,5.45445796 C19.1846386,5.45445796 19.0950767,5.46900047 19.0039851,5.49808592 C18.9128935,5.52717138 18.8117161,5.57746422 18.7004499,5.64896597 L18.4381807,5.26176778 C18.6827219,5.08725506 18.974333,5 19.3130225,5 C19.5905768,5 19.8097436,5.05574629 19.9705294,5.16724053 C20.1313153,5.27873477 20.211707,5.43385487 20.211707,5.63260548 L20.211707,5.63260548 Z" id="123" fill="#15D239"></path>
        </g>
    </g>
</svg>