<?xml version="1.0" encoding="UTF-8" standalone="no"?>
<svg width="26px" height="115px" viewBox="0 0 26 115" version="1.1" xmlns="http://www.w3.org/2000/svg" xmlns:xlink="http://www.w3.org/1999/xlink">
    <!-- Generator: Sketch 3.7 (28169) - http://www.bohemiancoding.com/sketch -->
    <title>input-city</title>
    <desc>Created with Sketch.</desc>
    <defs>
        <rect id="path-1" x="5" y="0" width="9" height="17"></rect>
        <mask id="mask-2" maskContentUnits="userSpaceOnUse" maskUnits="objectBoundingBox" x="0" y="0" width="9" height="17" fill="white">
            <use xlink:href="#path-1"></use>
        </mask>
        <rect id="path-3" x="8" y="3" width="3" height="3"></rect>
        <mask id="mask-4" maskContentUnits="userSpaceOnUse" maskUnits="objectBoundingBox" x="0" y="0" width="3" height="3" fill="white">
            <use xlink:href="#path-3"></use>
        </mask>
        <rect id="path-5" x="8" y="8" width="3" height="3"></rect>
        <mask id="mask-6" maskContentUnits="userSpaceOnUse" maskUnits="objectBoundingBox" x="0" y="0" width="3" height="3" fill="white">
            <use xlink:href="#path-5"></use>
        </mask>
        <rect id="path-7" x="13" y="9" width="3" height="3"></rect>
        <mask id="mask-8" maskContentUnits="userSpaceOnUse" maskUnits="objectBoundingBox" x="0" y="0" width="3" height="3" fill="white">
            <use xlink:href="#path-7"></use>
        </mask>
        <rect id="path-9" x="3" y="9" width="3" height="3"></rect>
        <mask id="mask-10" maskContentUnits="userSpaceOnUse" maskUnits="objectBoundingBox" x="0" y="0" width="3" height="3" fill="white">
            <use xlink:href="#path-9"></use>
        </mask>
        <rect id="path-11" x="5" y="0" width="9" height="17"></rect>
        <mask id="mask-12" maskContentUnits="userSpaceOnUse" maskUnits="objectBoundingBox" x="0" y="0" width="9" height="17" fill="white">
            <use xlink:href="#path-11"></use>
        </mask>
        <rect id="path-13" x="8" y="3" width="3" height="3"></rect>
        <mask id="mask-14" maskContentUnits="userSpaceOnUse" maskUnits="objectBoundingBox" x="0" y="0" width="3" height="3" fill="white">
            <use xlink:href="#path-13"></use>
        </mask>
        <rect id="path-15" x="8" y="8" width="3" height="3"></rect>
        <mask id="mask-16" maskContentUnits="userSpaceOnUse" maskUnits="objectBoundingBox" x="0" y="0" width="3" height="3" fill="white">
            <use xlink:href="#path-15"></use>
        </mask>
        <rect id="path-17" x="13" y="9" width="3" height="3"></rect>
        <mask id="mask-18" maskContentUnits="userSpaceOnUse" maskUnits="objectBoundingBox" x="0" y="0" width="3" height="3" fill="white">
            <use xlink:href="#path-17"></use>
        </mask>
        <rect id="path-19" x="3" y="9" width="3" height="3"></rect>
        <mask id="mask-20" maskContentUnits="userSpaceOnUse" maskUnits="objectBoundingBox" x="0" y="0" width="3" height="3" fill="white">
            <use xlink:href="#path-19"></use>
        </mask>
        <rect id="path-21" x="5" y="0" width="9" height="17"></rect>
        <mask id="mask-22" maskContentUnits="userSpaceOnUse" maskUnits="objectBoundingBox" x="0" y="0" width="9" height="17" fill="white">
            <use xlink:href="#path-21"></use>
        </mask>
        <rect id="path-23" x="8" y="3" width="3" height="3"></rect>
        <mask id="mask-24" maskContentUnits="userSpaceOnUse" maskUnits="objectBoundingBox" x="0" y="0" width="3" height="3" fill="white">
            <use xlink:href="#path-23"></use>
        </mask>
        <rect id="path-25" x="8" y="8" width="3" height="3"></rect>
        <mask id="mask-26" maskContentUnits="userSpaceOnUse" maskUnits="objectBoundingBox" x="0" y="0" width="3" height="3" fill="white">
            <use xlink:href="#path-25"></use>
        </mask>
        <rect id="path-27" x="13" y="9" width="3" height="3"></rect>
        <mask id="mask-28" maskContentUnits="userSpaceOnUse" maskUnits="objectBoundingBox" x="0" y="0" width="3" height="3" fill="white">
            <use xlink:href="#path-27"></use>
        </mask>
        <rect id="path-29" x="3" y="9" width="3" height="3"></rect>
        <mask id="mask-30" maskContentUnits="userSpaceOnUse" maskUnits="objectBoundingBox" x="0" y="0" width="3" height="3" fill="white">
            <use xlink:href="#path-29"></use>
        </mask>
    </defs>
    <g id="phone" stroke="none" stroke-width="1" fill="none" fill-rule="evenodd">
        <g id="address2-copy"></g>
        <g id="Group-9" transform="translate(4.000000, 2.000000)" stroke="#D8D8D8">
            <polyline id="Rectangle-34" points="6 16 0 16 0 6 0 6 6 6"></polyline>
            <use id="Rectangle-35" mask="url(#mask-2)" stroke-width="2" xlink:href="#path-1"></use>
            <use id="Rectangle-36" mask="url(#mask-4)" stroke-width="2" xlink:href="#path-3"></use>
            <use id="Rectangle-36-Copy" mask="url(#mask-6)" stroke-width="2" xlink:href="#path-5"></use>
            <use id="Rectangle-36-Copy-3" mask="url(#mask-8)" stroke-width="2" xlink:href="#path-7"></use>
            <use id="Rectangle-36-Copy-2" mask="url(#mask-10)" stroke-width="2" xlink:href="#path-9"></use>
            <polyline id="Path-53" points="13.503196 6.96839489 15.6490876 5.14504867 20 8.15239513"></polyline>
            <polyline id="Path-54" points="18.8483665 7.23792614 18.8483665 14 13.7901266 14"></polyline>
        </g>
        <g id="Group-9-Copy" transform="translate(4.000000, 50.000000)" stroke="#941469">
            <polyline id="Rectangle-34" points="6 16 0 16 0 6 0 6 6 6"></polyline>
            <use id="Rectangle-35" mask="url(#mask-12)" stroke-width="2" xlink:href="#path-11"></use>
            <use id="Rectangle-36" mask="url(#mask-14)" stroke-width="2" xlink:href="#path-13"></use>
            <use id="Rectangle-36-Copy" mask="url(#mask-16)" stroke-width="2" xlink:href="#path-15"></use>
            <use id="Rectangle-36-Copy-3" mask="url(#mask-18)" stroke-width="2" xlink:href="#path-17"></use>
            <use id="Rectangle-36-Copy-2" mask="url(#mask-20)" stroke-width="2" xlink:href="#path-19"></use>
            <polyline id="Path-53" points="13.503196 6.96839489 15.6490876 5.14504867 20 8.15239513"></polyline>
            <polyline id="Path-54" points="18.8483665 7.23792614 18.8483665 14 13.7901266 14"></polyline>
        </g>
        <g id="Group-9-Copy-2" transform="translate(4.000000, 96.000000)" stroke="#15D239">
            <polyline id="Rectangle-34" points="6 16 0 16 0 6 0 6 6 6"></polyline>
            <use id="Rectangle-35" mask="url(#mask-22)" stroke-width="2" xlink:href="#path-21"></use>
            <use id="Rectangle-36" mask="url(#mask-24)" stroke-width="2" xlink:href="#path-23"></use>
            <use id="Rectangle-36-Copy" mask="url(#mask-26)" stroke-width="2" xlink:href="#path-25"></use>
            <use id="Rectangle-36-Copy-3" mask="url(#mask-28)" stroke-width="2" xlink:href="#path-27"></use>
            <use id="Rectangle-36-Copy-2" mask="url(#mask-30)" stroke-width="2" xlink:href="#path-29"></use>
            <polyline id="Path-53" points="13.503196 6.96839489 15.6490876 5.14504867 20 8.15239513"></polyline>
            <polyline id="Path-54" points="18.8483665 7.23792614 18.8483665 14 13.7901266 14"></polyline>
        </g>
    </g>
</svg>