<?xml version="1.0" encoding="UTF-8" standalone="no"?>
<svg width="26px" height="115px" viewBox="0 0 26 115" version="1.1" xmlns="http://www.w3.org/2000/svg" xmlns:xlink="http://www.w3.org/1999/xlink">
    <!-- Generator: Sketch 3.7 (28169) - http://www.bohemiancoding.com/sketch -->
    <title>input-cc</title>
    <desc>Created with Sketch.</desc>
    <defs>
        <rect id="path-1" x="0" y="0" width="18" height="12" rx="2"></rect>
        <mask id="mask-2" maskContentUnits="userSpaceOnUse" maskUnits="objectBoundingBox" x="0" y="0" width="18" height="12" fill="white">
            <use xlink:href="#path-1"></use>
        </mask>
        <rect id="path-3" x="0" y="0" width="18" height="12" rx="2"></rect>
        <mask id="mask-4" maskContentUnits="userSpaceOnUse" maskUnits="objectBoundingBox" x="0" y="0" width="18" height="12" fill="white">
            <use xlink:href="#path-3"></use>
        </mask>
        <rect id="path-5" x="0" y="0" width="18" height="12" rx="2"></rect>
        <mask id="mask-6" maskContentUnits="userSpaceOnUse" maskUnits="objectBoundingBox" x="0" y="0" width="18" height="12" fill="white">
            <use xlink:href="#path-5"></use>
        </mask>
    </defs>
    <g id="phone" stroke="none" stroke-width="1" fill="none" fill-rule="evenodd">
        <g id="address2-copy-5"></g>
        <g id="Group-11" transform="translate(4.000000, 4.000000)">
            <use id="Rectangle-64" stroke="#D8D8D8" mask="url(#mask-2)" stroke-width="2" xlink:href="#path-1"></use>
            <rect id="Rectangle-65" fill="#D8D8D8" x="1" y="3" width="16" height="2"></rect>
            <path d="M2.5,8.5 L4.5,8.5" id="Line" stroke="#D8D8D8" stroke-linecap="square"></path>
            <path d="M6.5,8.5 L8.5,8.5" id="Line-Copy-2" stroke="#D8D8D8" stroke-linecap="square"></path>
            <path d="M10.5,8.5 L12.5,8.5" id="Line-Copy-9" stroke="#D8D8D8" stroke-linecap="square"></path>
        </g>
        <g id="Group-11-Copy-2" transform="translate(4.000000, 52.000000)">
            <use id="Rectangle-64" stroke="#941469" mask="url(#mask-4)" stroke-width="2" xlink:href="#path-3"></use>
            <rect id="Rectangle-65" fill="#941469" x="1" y="3" width="16" height="2"></rect>
            <path d="M2.5,8.5 L4.5,8.5" id="Line" stroke="#941469" stroke-linecap="square"></path>
            <path d="M6.5,8.5 L8.5,8.5" id="Line-Copy-2" stroke="#941469" stroke-linecap="square"></path>
            <path d="M10.5,8.5 L12.5,8.5" id="Line-Copy-9" stroke="#941469" stroke-linecap="square"></path>
        </g>
        <g id="Group-11-Copy-3" transform="translate(4.000000, 98.000000)">
            <use id="Rectangle-64" stroke="#15D239" mask="url(#mask-6)" stroke-width="2" xlink:href="#path-5"></use>
            <rect id="Rectangle-65" fill="#15D239" x="1" y="3" width="16" height="2"></rect>
            <path d="M2.5,8.5 L4.5,8.5" id="Line" stroke="#15D239" stroke-linecap="square"></path>
            <path d="M6.5,8.5 L8.5,8.5" id="Line-Copy-2" stroke="#15D239" stroke-linecap="square"></path>
            <path d="M10.5,8.5 L12.5,8.5" id="Line-Copy-9" stroke="#15D239" stroke-linecap="square"></path>
        </g>
    </g>
</svg>