<?xml version="1.0" encoding="UTF-8" standalone="no"?>
<svg width="26px" height="115px" viewBox="0 0 26 115" version="1.1" xmlns="http://www.w3.org/2000/svg" xmlns:xlink="http://www.w3.org/1999/xlink">
    <!-- Generator: Sketch 3.7 (28169) - http://www.bohemiancoding.com/sketch -->
    <title>input-address2</title>
    <desc>Created with Sketch.</desc>
    <defs></defs>
    <g id="phone" stroke="none" stroke-width="1" fill="none" fill-rule="evenodd">
        <g id="address2">
            <g id="Page-1" transform="translate(8.000000, 2.000000)" stroke="#D8D8D8">
                <path d="M8.97216,6.298752 C9.14432,5.824512 9.2384,5.312512 9.2384,4.778752 C9.2384,2.316672 7.2416,0.319872 4.77888,0.319872 C2.31616,0.319872 0.32,2.316672 0.32,4.778752 C0.32,5.312512 0.41408,5.824512 0.58624,6.298752 L0.65152,6.467072 C0.68928,6.559232 0.73024,6.650752 0.77376,6.739712 L4.77888,15.679872 L8.78464,6.739712 C8.82816,6.650112 8.86848,6.559232 8.90688,6.467072 L8.97216,6.298752 L8.97216,6.298752 Z" id="Stroke-1"></path>
                <path d="M6.471488,4.774528 C6.471488,5.708928 5.713728,6.466688 4.779328,6.466688 C3.844288,6.466688 3.086528,5.708928 3.086528,4.774528 C3.086528,3.840128 3.844288,3.082368 4.779328,3.082368 C5.713728,3.082368 6.471488,3.840128 6.471488,4.774528 L6.471488,4.774528 Z" id="Stroke-3"></path>
            </g>
            <circle id="Oval-10" fill="#D8D8D8" cx="16" cy="17" r="1"></circle>
            <path d="M19,18 C19.5522847,18 20,17.5522847 20,17 C20,16.4477153 19.5522847,16 19,16 C18.4477153,16 18,16.4477153 18,17 C18,17.5522847 18.4477153,18 19,18 Z" id="Oval-10-Copy" fill="#D8D8D8"></path>
            <circle id="Oval-10-Copy-2" fill="#D8D8D8" cx="22" cy="17" r="1"></circle>
            <g id="Page-1-Copy" transform="translate(8.000000, 50.000000)" stroke="#941469">
                <path d="M8.97216,6.298752 C9.14432,5.824512 9.2384,5.312512 9.2384,4.778752 C9.2384,2.316672 7.2416,0.319872 4.77888,0.319872 C2.31616,0.319872 0.32,2.316672 0.32,4.778752 C0.32,5.312512 0.41408,5.824512 0.58624,6.298752 L0.65152,6.467072 C0.68928,6.559232 0.73024,6.650752 0.77376,6.739712 L4.77888,15.679872 L8.78464,6.739712 C8.82816,6.650112 8.86848,6.559232 8.90688,6.467072 L8.97216,6.298752 L8.97216,6.298752 Z" id="Stroke-1"></path>
                <path d="M6.471488,4.774528 C6.471488,5.708928 5.713728,6.466688 4.779328,6.466688 C3.844288,6.466688 3.086528,5.708928 3.086528,4.774528 C3.086528,3.840128 3.844288,3.082368 4.779328,3.082368 C5.713728,3.082368 6.471488,3.840128 6.471488,4.774528 L6.471488,4.774528 Z" id="Stroke-3"></path>
            </g>
            <circle id="Oval-10" fill="#941469" cx="16" cy="65" r="1"></circle>
            <circle id="Oval-10-Copy-3" fill="#4CDC67" cx="16" cy="112" r="1"></circle>
            <path d="M19,66 C19.5522847,66 20,65.5522847 20,65 C20,64.4477153 19.5522847,64 19,64 C18.4477153,64 18,64.4477153 18,65 C18,65.5522847 18.4477153,66 19,66 Z" id="Oval-10-Copy" fill="#941469"></path>
            <path d="M19,113 C19.5522847,113 20,112.552285 20,112 C20,111.447715 19.5522847,111 19,111 C18.4477153,111 18,111.447715 18,112 C18,112.552285 18.4477153,113 19,113 Z" id="Oval-10-Copy-4" fill="#4CDC67"></path>
            <circle id="Oval-10-Copy-2" fill="#941469" cx="22" cy="65" r="1"></circle>
            <circle id="Oval-10-Copy-5" fill="#4CDC67" cx="22" cy="112" r="1"></circle>
            <g id="Page-1-Copy-2" transform="translate(8.000000, 97.000000)" stroke="#15D239">
                <path d="M8.97216,6.298752 C9.14432,5.824512 9.2384,5.312512 9.2384,4.778752 C9.2384,2.316672 7.2416,0.319872 4.77888,0.319872 C2.31616,0.319872 0.32,2.316672 0.32,4.778752 C0.32,5.312512 0.41408,5.824512 0.58624,6.298752 L0.65152,6.467072 C0.68928,6.559232 0.73024,6.650752 0.77376,6.739712 L4.77888,15.679872 L8.78464,6.739712 C8.82816,6.650112 8.86848,6.559232 8.90688,6.467072 L8.97216,6.298752 L8.97216,6.298752 Z" id="Stroke-1"></path>
                <path d="M6.471488,4.774528 C6.471488,5.708928 5.713728,6.466688 4.779328,6.466688 C3.844288,6.466688 3.086528,5.708928 3.086528,4.774528 C3.086528,3.840128 3.844288,3.082368 4.779328,3.082368 C5.713728,3.082368 6.471488,3.840128 6.471488,4.774528 L6.471488,4.774528 Z" id="Stroke-3"></path>
            </g>
        </g>
    </g>
</svg>