<?xml version="1.0" encoding="UTF-8" standalone="no"?>
<svg width="26px" height="115px" viewBox="0 0 26 115" version="1.1" xmlns="http://www.w3.org/2000/svg" xmlns:xlink="http://www.w3.org/1999/xlink">
    <!-- Generator: Sketch 3.7 (28169) - http://www.bohemiancoding.com/sketch -->
    <title>input-ccv</title>
    <desc>Created with Sketch.</desc>
    <defs>
        <rect id="path-1" x="0" y="4" width="11" height="9" rx="2"></rect>
        <mask id="mask-2" maskContentUnits="userSpaceOnUse" maskUnits="objectBoundingBox" x="0" y="0" width="11" height="9" fill="white">
            <use xlink:href="#path-1"></use>
        </mask>
        <rect id="path-3" x="0" y="99" width="11" height="9" rx="2"></rect>
        <mask id="mask-4" maskContentUnits="userSpaceOnUse" maskUnits="objectBoundingBox" x="0" y="0" width="11" height="9" fill="white">
            <use xlink:href="#path-3"></use>
        </mask>
        <path d="M3,5 L3,2.5 L3,2.5 C3,1.11928813 4.10966206,0 5.5,0 L5.5,0 C6.88071187,0 8,1.10966206 8,2.5 L8,5" id="path-5"></path>
        <mask id="mask-6" maskContentUnits="userSpaceOnUse" maskUnits="objectBoundingBox" x="0" y="0" width="5" height="5" fill="white">
            <use xlink:href="#path-5"></use>
        </mask>
        <path d="M3,100 L3,97.5 L3,97.5 C3,96.1192881 4.10966206,95 5.5,95 L5.5,95 C6.88071187,95 8,96.1096621 8,97.5 L8,100" id="path-7"></path>
        <mask id="mask-8" maskContentUnits="userSpaceOnUse" maskUnits="objectBoundingBox" x="0" y="0" width="5" height="5" fill="white">
            <use xlink:href="#path-7"></use>
        </mask>
        <rect id="path-9" x="0" y="4" width="11" height="9" rx="2"></rect>
        <mask id="mask-10" maskContentUnits="userSpaceOnUse" maskUnits="objectBoundingBox" x="0" y="0" width="11" height="9" fill="white">
            <use xlink:href="#path-9"></use>
        </mask>
        <path d="M3,5 L3,2.5 L3,2.5 C3,1.11928813 4.10966206,0 5.5,0 L5.5,0 C6.88071187,0 8,1.10966206 8,2.5 L8,5" id="path-11"></path>
        <mask id="mask-12" maskContentUnits="userSpaceOnUse" maskUnits="objectBoundingBox" x="0" y="0" width="5" height="5" fill="white">
            <use xlink:href="#path-11"></use>
        </mask>
    </defs>
    <g id="phone" stroke="none" stroke-width="1" fill="none" fill-rule="evenodd">
        <g id="address2-copy-6"></g>
        <g id="Group-11-Copy" transform="translate(8.000000, 3.000000)">
            <use id="Rectangle-64" stroke="#D8D8D8" mask="url(#mask-2)" stroke-width="2" xlink:href="#path-1"></use>
            <use id="Rectangle-64-Copy-2" stroke="#15D239" mask="url(#mask-4)" stroke-width="2" xlink:href="#path-3"></use>
            <use id="Rectangle-71" stroke="#D8D8D8" mask="url(#mask-6)" stroke-width="2" xlink:href="#path-5"></use>
            <use id="Rectangle-71-Copy-2" stroke="#15D239" mask="url(#mask-8)" stroke-width="2" xlink:href="#path-7"></use>
            <path d="M5.5,102.5 L5.5,104.5" id="Line" stroke="#15D239" stroke-linecap="square"></path>
            <g id="Group-12" transform="translate(0.000000, 48.000000)" stroke="#941469">
                <use id="Rectangle-64-Copy" mask="url(#mask-10)" stroke-width="2" xlink:href="#path-9"></use>
                <use id="Rectangle-71-Copy" mask="url(#mask-12)" stroke-width="2" xlink:href="#path-11"></use>
                <path d="M5.5,7.5 L5.5,9.5" id="Line" stroke-linecap="square"></path>
            </g>
        </g>
        <path d="M13.5,10.5 L13.5,12.5" id="Line" stroke="#D8D8D8" stroke-linecap="square"></path>
    </g>
</svg>