<?xml version="1.0" encoding="UTF-8" standalone="no"?>
<svg width="26px" height="115px" viewBox="0 0 26 115" version="1.1" xmlns="http://www.w3.org/2000/svg" xmlns:xlink="http://www.w3.org/1999/xlink">
    <!-- Generator: Sketch 3.7 (28169) - http://www.bohemiancoding.com/sketch -->
    <title>input-zip</title>
    <desc>Created with Sketch.</desc>
    <defs></defs>
    <g id="phone" stroke="none" stroke-width="1" fill="none" fill-rule="evenodd">
        <g id="address2-copy-3">
            <path d="M15.9467969,18 L12.7592969,18 L12.7592969,17.4111328 L14.8130078,14.4667969 L12.8149609,14.4667969 L12.8149609,13.7167969 L15.8911328,13.7167969 L15.8911328,14.3027344 L13.8403516,17.25 L15.9467969,17.25 L15.9467969,18 Z M16.8094141,18 L16.8094141,13.7167969 L17.7176172,13.7167969 L17.7176172,18 L16.8094141,18 Z M19.8839453,15.7324219 L20.1827734,15.7324219 C20.4620717,15.7324219 20.671054,15.6772466 20.8097266,15.5668945 C20.9483991,15.4565424 21.0177344,15.2958995 21.0177344,15.0849609 C21.0177344,14.8720692 20.9596295,14.7148443 20.843418,14.6132812 C20.7272065,14.5117182 20.5450794,14.4609375 20.2970313,14.4609375 L19.8839453,14.4609375 L19.8839453,15.7324219 Z M21.9347266,15.0527344 C21.9347266,15.5136742 21.790685,15.8662097 21.5025977,16.1103516 C21.2145103,16.3544934 20.8048464,16.4765625 20.2735938,16.4765625 L19.8839453,16.4765625 L19.8839453,18 L18.9757422,18 L18.9757422,13.7167969 L20.3439063,13.7167969 C20.8634401,13.7167969 21.2584557,13.8286122 21.5289648,14.0522461 C21.799474,14.27588 21.9347266,14.6093728 21.9347266,15.0527344 L21.9347266,15.0527344 Z" id="ZIP" fill="#D8D8D8"></path>
            <path d="M16.4467969,66 L13.2592969,66 L13.2592969,65.4111328 L15.3130078,62.4667969 L13.3149609,62.4667969 L13.3149609,61.7167969 L16.3911328,61.7167969 L16.3911328,62.3027344 L14.3403516,65.25 L16.4467969,65.25 L16.4467969,66 Z M17.3094141,66 L17.3094141,61.7167969 L18.2176172,61.7167969 L18.2176172,66 L17.3094141,66 Z M20.3839453,63.7324219 L20.6827734,63.7324219 C20.9620717,63.7324219 21.171054,63.6772466 21.3097266,63.5668945 C21.4483991,63.4565424 21.5177344,63.2958995 21.5177344,63.0849609 C21.5177344,62.8720692 21.4596295,62.7148443 21.343418,62.6132812 C21.2272065,62.5117182 21.0450794,62.4609375 20.7970313,62.4609375 L20.3839453,62.4609375 L20.3839453,63.7324219 Z M22.4347266,63.0527344 C22.4347266,63.5136742 22.290685,63.8662097 22.0025977,64.1103516 C21.7145103,64.3544934 21.3048464,64.4765625 20.7735938,64.4765625 L20.3839453,64.4765625 L20.3839453,66 L19.4757422,66 L19.4757422,61.7167969 L20.8439063,61.7167969 C21.3634401,61.7167969 21.7584557,61.8286122 22.0289648,62.0522461 C22.299474,62.27588 22.4347266,62.6093728 22.4347266,63.0527344 L22.4347266,63.0527344 Z" id="ZIP-Copy" fill="#941469"></path>
            <path d="M16.4467969,113 L13.2592969,113 L13.2592969,112.411133 L15.3130078,109.466797 L13.3149609,109.466797 L13.3149609,108.716797 L16.3911328,108.716797 L16.3911328,109.302734 L14.3403516,112.25 L16.4467969,112.25 L16.4467969,113 Z M17.3094141,113 L17.3094141,108.716797 L18.2176172,108.716797 L18.2176172,113 L17.3094141,113 Z M20.3839453,110.732422 L20.6827734,110.732422 C20.9620717,110.732422 21.171054,110.677247 21.3097266,110.566895 C21.4483991,110.456542 21.5177344,110.295899 21.5177344,110.084961 C21.5177344,109.872069 21.4596295,109.714844 21.343418,109.613281 C21.2272065,109.511718 21.0450794,109.460938 20.7970313,109.460938 L20.3839453,109.460938 L20.3839453,110.732422 Z M22.4347266,110.052734 C22.4347266,110.513674 22.290685,110.86621 22.0025977,111.110352 C21.7145103,111.354493 21.3048464,111.476562 20.7735938,111.476562 L20.3839453,111.476562 L20.3839453,113 L19.4757422,113 L19.4757422,108.716797 L20.8439063,108.716797 C21.3634401,108.716797 21.7584557,108.828612 22.0289648,109.052246 C22.299474,109.27588 22.4347266,109.609373 22.4347266,110.052734 L22.4347266,110.052734 Z" id="ZIP-Copy-2" fill="#15D239"></path>
            <g id="Page-1" transform="translate(4.000000, 2.000000)" stroke="#D8D8D8">
                <path d="M8.97216,6.298752 C9.14432,5.824512 9.2384,5.312512 9.2384,4.778752 C9.2384,2.316672 7.2416,0.319872 4.77888,0.319872 C2.31616,0.319872 0.32,2.316672 0.32,4.778752 C0.32,5.312512 0.41408,5.824512 0.58624,6.298752 L0.65152,6.467072 C0.68928,6.559232 0.73024,6.650752 0.77376,6.739712 L4.77888,15.679872 L8.78464,6.739712 C8.82816,6.650112 8.86848,6.559232 8.90688,6.467072 L8.97216,6.298752 L8.97216,6.298752 Z" id="Stroke-1"></path>
                <path d="M6.471488,4.774528 C6.471488,5.708928 5.713728,6.466688 4.779328,6.466688 C3.844288,6.466688 3.086528,5.708928 3.086528,4.774528 C3.086528,3.840128 3.844288,3.082368 4.779328,3.082368 C5.713728,3.082368 6.471488,3.840128 6.471488,4.774528 L6.471488,4.774528 Z" id="Stroke-3"></path>
            </g>
            <g id="Page-1-Copy" transform="translate(4.000000, 50.000000)" stroke="#941469">
                <path d="M8.97216,6.298752 C9.14432,5.824512 9.2384,5.312512 9.2384,4.778752 C9.2384,2.316672 7.2416,0.319872 4.77888,0.319872 C2.31616,0.319872 0.32,2.316672 0.32,4.778752 C0.32,5.312512 0.41408,5.824512 0.58624,6.298752 L0.65152,6.467072 C0.68928,6.559232 0.73024,6.650752 0.77376,6.739712 L4.77888,15.679872 L8.78464,6.739712 C8.82816,6.650112 8.86848,6.559232 8.90688,6.467072 L8.97216,6.298752 L8.97216,6.298752 Z" id="Stroke-1"></path>
                <path d="M6.471488,4.774528 C6.471488,5.708928 5.713728,6.466688 4.779328,6.466688 C3.844288,6.466688 3.086528,5.708928 3.086528,4.774528 C3.086528,3.840128 3.844288,3.082368 4.779328,3.082368 C5.713728,3.082368 6.471488,3.840128 6.471488,4.774528 L6.471488,4.774528 Z" id="Stroke-3"></path>
            </g>
            <g id="Page-1-Copy-2" transform="translate(4.000000, 97.000000)" stroke="#15D239">
                <path d="M8.97216,6.298752 C9.14432,5.824512 9.2384,5.312512 9.2384,4.778752 C9.2384,2.316672 7.2416,0.319872 4.77888,0.319872 C2.31616,0.319872 0.32,2.316672 0.32,4.778752 C0.32,5.312512 0.41408,5.824512 0.58624,6.298752 L0.65152,6.467072 C0.68928,6.559232 0.73024,6.650752 0.77376,6.739712 L4.77888,15.679872 L8.78464,6.739712 C8.82816,6.650112 8.86848,6.559232 8.90688,6.467072 L8.97216,6.298752 L8.97216,6.298752 Z" id="Stroke-1"></path>
                <path d="M6.471488,4.774528 C6.471488,5.708928 5.713728,6.466688 4.779328,6.466688 C3.844288,6.466688 3.086528,5.708928 3.086528,4.774528 C3.086528,3.840128 3.844288,3.082368 4.779328,3.082368 C5.713728,3.082368 6.471488,3.840128 6.471488,4.774528 L6.471488,4.774528 Z" id="Stroke-3"></path>
            </g>
        </g>
    </g>
</svg>