<?xml version="1.0" encoding="UTF-8" standalone="no"?>
<svg width="14px" height="119px" viewBox="0 0 14 119" version="1.1" xmlns="http://www.w3.org/2000/svg" xmlns:xlink="http://www.w3.org/1999/xlink">
    <!-- Generator: Sketch 3.7 (28169) - http://www.bohemiancoding.com/sketch -->
    <title>input-token</title>
    <desc>Created with Sketch.</desc>
    <defs>
        <rect id="path-1" x="0" y="0" width="14" height="23" rx="1"></rect>
        <mask id="mask-2" maskContentUnits="userSpaceOnUse" maskUnits="objectBoundingBox" x="0" y="0" width="14" height="23" fill="white">
            <use xlink:href="#path-1"></use>
        </mask>
        <rect id="path-3" x="0" y="0" width="14" height="23" rx="1"></rect>
        <mask id="mask-4" maskContentUnits="userSpaceOnUse" maskUnits="objectBoundingBox" x="0" y="0" width="14" height="23" fill="white">
            <use xlink:href="#path-3"></use>
        </mask>
        <rect id="path-5" x="0" y="0" width="14" height="23" rx="1"></rect>
        <mask id="mask-6" maskContentUnits="userSpaceOnUse" maskUnits="objectBoundingBox" x="0" y="0" width="14" height="23" fill="white">
            <use xlink:href="#path-5"></use>
        </mask>
    </defs>
    <g id="phone" stroke="none" stroke-width="1" fill="none" fill-rule="evenodd">
        <g id="input-token">
            <g id="Group-4" stroke="#D8D8D8">
                <g id="phone-valid-copy-6" stroke-width="2">
                    <use id="Rectangle-9" mask="url(#mask-2)" xlink:href="#path-1"></use>
                </g>
                <path d="M5.5,2.5 L8.5,2.5" id="Line-Copy-10" stroke-linecap="square"></path>
                <path d="M1.42857143,4.5 L12.6043467,4.5" id="Line-Copy-13" stroke-linecap="square"></path>
                <path d="M1.42857143,19.5 L12.6043467,19.5" id="Line-Copy-16" stroke-linecap="square"></path>
                <polyline id="Path-19" transform="translate(6.679575, 10.679575) rotate(-45.000000) translate(-6.679575, -10.679575) " points="4.15072484 9.41893363 4.15072484 11.9402156 9.20842442 11.9402156"></polyline>
            </g>
            <g id="Group-5" transform="translate(0.000000, 48.000000)" stroke="#941469">
                <g id="phone-valid-copy-7" stroke-width="2">
                    <use id="Rectangle-9" mask="url(#mask-4)" xlink:href="#path-3"></use>
                </g>
                <path d="M5.5,2.5 L8.5,2.5" id="Line-Copy-11" stroke-linecap="square"></path>
                <path d="M1.42857143,4.5 L12.6043467,4.5" id="Line-Copy-14" stroke-linecap="square"></path>
                <path d="M1.42857143,19.5 L12.6043467,19.5" id="Line-Copy-17" stroke-linecap="square"></path>
                <polyline id="Path-19-Copy" transform="translate(6.679575, 10.679575) rotate(-45.000000) translate(-6.679575, -10.679575) " points="4.15072484 9.41893363 4.15072484 11.9402156 9.20842442 11.9402156"></polyline>
            </g>
            <g id="Group-6" transform="translate(0.000000, 96.000000)" stroke="#15D239">
                <g id="phone-valid-copy-8" stroke-width="2">
                    <use id="Rectangle-9" mask="url(#mask-6)" xlink:href="#path-5"></use>
                </g>
                <path d="M5.5,2.5 L8.5,2.5" id="Line-Copy-12" stroke-linecap="square"></path>
                <path d="M1.42857143,4.5 L12.6043467,4.5" id="Line-Copy-15" stroke-linecap="square"></path>
                <path d="M1.42857143,19.5 L12.6043467,19.5" id="Line-Copy-18" stroke-linecap="square"></path>
                <polyline id="Path-19-Copy-2" transform="translate(6.679575, 10.679575) rotate(-45.000000) translate(-6.679575, -10.679575) " points="4.15072484 9.41893363 4.15072484 11.9402156 9.20842442 11.9402156"></polyline>
            </g>
        </g>
    </g>
</svg>