<?xml version="1.0" encoding="UTF-8" standalone="no"?>
<svg width="26px" height="115px" viewBox="0 0 26 115" version="1.1" xmlns="http://www.w3.org/2000/svg" xmlns:xlink="http://www.w3.org/1999/xlink">
    <!-- Generator: Sketch 3.7 (28169) - http://www.bohemiancoding.com/sketch -->
    <title>input-country</title>
    <desc>Created with Sketch.</desc>
    <defs></defs>
    <g id="phone" stroke="none" stroke-width="1" fill="none" fill-rule="evenodd">
        <g id="address2-copy-4">
            <g id="Page-1" transform="translate(13.000000, 10.000000) rotate(-15.000000) translate(-13.000000, -10.000000) translate(7.000000, 3.000000)" stroke="#D8D8D8">
                <path d="M0,0 L0,13.1274038" id="Stroke-1"></path>
                <path d="M0,7.47845412 C2.9275948,5.290757 8.0379357,8.54696373 11.6103516,6.56258873 L10.7172476,1.37268489 C6.35116001,3.05177143 2.82816256,-0.103079536 0,1.93258393" id="Stroke-3"></path>
            </g>
            <g id="Page-1-Copy-3" transform="translate(12.607288, 57.685605) rotate(-15.000000) translate(-12.607288, -57.685605) translate(6.607288, 50.685605)" stroke="#941469">
                <path d="M4.26325641e-14,7.10542736e-15 L4.26325641e-14,13.1274038" id="Stroke-1"></path>
                <path d="M4.97379915e-14,7.47845412 C2.9275948,5.290757 8.0379357,8.54696373 11.6103516,6.56258873 L10.7172476,1.37268489 C6.35116001,3.05177143 2.82816256,-0.103079536 4.97379915e-14,1.93258393" id="Stroke-3"></path>
            </g>
            <g id="Page-1-Copy-4" transform="translate(12.607288, 104.685605) rotate(-15.000000) translate(-12.607288, -104.685605) translate(6.607288, 97.685605)" stroke="#15D239">
                <path d="M3.90798505e-14,1.42108547e-14 L3.90798505e-14,13.1274038" id="Stroke-1"></path>
                <path d="M5.32907052e-14,7.47845412 C2.9275948,5.290757 8.0379357,8.54696373 11.6103516,6.56258873 L10.7172476,1.37268489 C6.35116001,3.05177143 2.82816256,-0.103079536 5.32907052e-14,1.93258393" id="Stroke-3"></path>
            </g>
        </g>
    </g>
</svg>