<?xml version="1.0" encoding="UTF-8" standalone="no"?>
<svg width="26px" height="115px" viewBox="0 0 26 115" version="1.1" xmlns="http://www.w3.org/2000/svg" xmlns:xlink="http://www.w3.org/1999/xlink">
    <!-- Generator: Sketch 3.7 (28169) - http://www.bohemiancoding.com/sketch -->
    <title>input-firstname</title>
    <desc>Created with Sketch.</desc>
    <defs>
        <rect id="path-1" x="1" y="0" width="15" height="26" rx="1.1"></rect>
        <mask id="mask-2" maskContentUnits="userSpaceOnUse" maskUnits="objectBoundingBox" x="0" y="0" width="15" height="26" fill="white">
            <use xlink:href="#path-1"></use>
        </mask>
        <ellipse id="path-3" cx="11.75" cy="6.66666667" rx="2.16666667" ry="2.22222222"></ellipse>
        <mask id="mask-4" maskContentUnits="userSpaceOnUse" maskUnits="objectBoundingBox" x="0" y="0" width="4.33333333" height="4.44444444" fill="white">
            <use xlink:href="#path-3"></use>
        </mask>
        <path d="M4.25,3.33333333 L6.41666667,3.33333333 C8.2115921,3.33333333 9.66666667,4.8257175 9.66666667,6.66666667 C9.66666667,8.50761583 8.2115921,10 6.41666667,10 L4.25,10" id="path-5"></path>
        <mask id="mask-6" maskContentUnits="userSpaceOnUse" maskUnits="objectBoundingBox" x="0" y="0" width="5.41666667" height="6.66666667" fill="white">
            <use xlink:href="#path-5"></use>
        </mask>
        <path d="M11,4.44444444 L11,2.17014313 L11,2.17014313 C11,0.971606173 11.9617071,0 13.1666667,0 L13.1666667,0 C14.3632836,0 15.3333333,0.964378251 15.3333333,2.17014313 L15.3333333,4.44444444" id="path-7"></path>
        <mask id="mask-8" maskContentUnits="userSpaceOnUse" maskUnits="objectBoundingBox" x="0" y="0" width="4.33333333" height="4.44444444" fill="white">
            <use xlink:href="#path-7"></use>
        </mask>
        <rect id="path-9" x="1" y="0" width="15" height="26" rx="1.1"></rect>
        <mask id="mask-10" maskContentUnits="userSpaceOnUse" maskUnits="objectBoundingBox" x="0" y="0" width="15" height="26" fill="white">
            <use xlink:href="#path-9"></use>
        </mask>
        <ellipse id="path-11" cx="11.75" cy="6.66666667" rx="2.16666667" ry="2.22222222"></ellipse>
        <mask id="mask-12" maskContentUnits="userSpaceOnUse" maskUnits="objectBoundingBox" x="0" y="0" width="4.33333333" height="4.44444444" fill="white">
            <use xlink:href="#path-11"></use>
        </mask>
        <path d="M4.25,3.33333333 L6.41666667,3.33333333 C8.2115921,3.33333333 9.66666667,4.8257175 9.66666667,6.66666667 C9.66666667,8.50761583 8.2115921,10 6.41666667,10 L4.25,10" id="path-13"></path>
        <mask id="mask-14" maskContentUnits="userSpaceOnUse" maskUnits="objectBoundingBox" x="0" y="0" width="5.41666667" height="6.66666667" fill="white">
            <use xlink:href="#path-13"></use>
        </mask>
        <path d="M11,4.44444444 L11,2.17014313 L11,2.17014313 C11,0.971606173 11.9617071,0 13.1666667,0 L13.1666667,0 C14.3632836,0 15.3333333,0.964378251 15.3333333,2.17014313 L15.3333333,4.44444444" id="path-15"></path>
        <mask id="mask-16" maskContentUnits="userSpaceOnUse" maskUnits="objectBoundingBox" x="0" y="0" width="4.33333333" height="4.44444444" fill="white">
            <use xlink:href="#path-15"></use>
        </mask>
        <rect id="path-17" x="1" y="0" width="15" height="26" rx="1.1"></rect>
        <mask id="mask-18" maskContentUnits="userSpaceOnUse" maskUnits="objectBoundingBox" x="0" y="0" width="15" height="26" fill="white">
            <use xlink:href="#path-17"></use>
        </mask>
        <ellipse id="path-19" cx="11.75" cy="6.66666667" rx="2.16666667" ry="2.22222222"></ellipse>
        <mask id="mask-20" maskContentUnits="userSpaceOnUse" maskUnits="objectBoundingBox" x="0" y="0" width="4.33333333" height="4.44444444" fill="white">
            <use xlink:href="#path-19"></use>
        </mask>
        <path d="M4.25,3.33333333 L6.41666667,3.33333333 C8.2115921,3.33333333 9.66666667,4.8257175 9.66666667,6.66666667 C9.66666667,8.50761583 8.2115921,10 6.41666667,10 L4.25,10" id="path-21"></path>
        <mask id="mask-22" maskContentUnits="userSpaceOnUse" maskUnits="objectBoundingBox" x="0" y="0" width="5.41666667" height="6.66666667" fill="white">
            <use xlink:href="#path-21"></use>
        </mask>
        <path d="M11,4.44444444 L11,2.17014313 L11,2.17014313 C11,0.971606173 11.9617071,0 13.1666667,0 L13.1666667,0 C14.3632836,0 15.3333333,0.964378251 15.3333333,2.17014313 L15.3333333,4.44444444" id="path-23"></path>
        <mask id="mask-24" maskContentUnits="userSpaceOnUse" maskUnits="objectBoundingBox" x="0" y="0" width="4.33333333" height="4.44444444" fill="white">
            <use xlink:href="#path-23"></use>
        </mask>
    </defs>
    <g id="phone" stroke="none" stroke-width="1" fill="none" fill-rule="evenodd">
        <g id="input-firstname" transform="translate(0.000000, -1.000000)">
            <g>
                <g>
                    <rect id="Rectangle-11" x="0" y="0" width="32" height="23"></rect>
                    <g id="Group-7" transform="translate(0.000000, 1.000000)">
                        <g id="Group-4-Copy" transform="translate(13.000000, 12.000000) rotate(-90.000000) translate(-13.000000, -12.000000) translate(5.000000, -1.000000)" stroke-width="2" stroke="#D8D8D8">
                            <g id="badge">
                                <use id="Rectangle-9" mask="url(#mask-2)" xlink:href="#path-1"></use>
                                <use id="Oval-4" mask="url(#mask-4)" xlink:href="#path-3"></use>
                                <use id="Combined-Shape" mask="url(#mask-6)" xlink:href="#path-5"></use>
                            </g>
                        </g>
                        <rect id="Rectangle-8" fill="#C3C3C3" x="12" y="8" width="9" height="2"></rect>
                        <rect id="Rectangle-8-Copy-3" fill="#D8D8D8" opacity="0.3" x="12" y="11" width="7" height="2"></rect>
                        <use id="Rectangle-10" stroke="#D8D8D8" mask="url(#mask-8)" stroke-width="2" xlink:href="#path-7"></use>
                    </g>
                </g>
            </g>
            <g id="input-firstname-copy-4" transform="translate(0.000000, 48.000000)">
                <g id="input-firstname">
                    <rect id="Rectangle-11" x="0" y="0" width="32" height="23"></rect>
                    <g id="Group-7" transform="translate(0.000000, 1.000000)">
                        <g id="Group-4-Copy" transform="translate(13.000000, 12.000000) rotate(-90.000000) translate(-13.000000, -12.000000) translate(5.000000, -1.000000)" stroke-width="2" stroke="#941469">
                            <g id="badge">
                                <use id="Rectangle-9" mask="url(#mask-10)" xlink:href="#path-9"></use>
                                <use id="Oval-4" mask="url(#mask-12)" xlink:href="#path-11"></use>
                                <use id="Combined-Shape" mask="url(#mask-14)" xlink:href="#path-13"></use>
                            </g>
                        </g>
                        <rect id="Rectangle-8" fill="#941469" x="12" y="8" width="9" height="2"></rect>
                        <rect id="Rectangle-8-Copy-3" fill="#941469" opacity="0.3" x="12" y="11" width="7" height="2"></rect>
                        <use id="Rectangle-10" stroke="#941469" mask="url(#mask-16)" stroke-width="2" xlink:href="#path-15"></use>
                    </g>
                </g>
            </g>
            <g id="input-firstname-copy-5" transform="translate(0.000000, 96.000000)">
                <g id="input-firstname">
                    <rect id="Rectangle-11" x="0" y="0" width="32" height="23"></rect>
                    <g id="Group-7" transform="translate(0.000000, 1.000000)">
                        <g id="Group-4-Copy" transform="translate(13.000000, 12.000000) rotate(-90.000000) translate(-13.000000, -12.000000) translate(5.000000, -1.000000)" stroke-width="2" stroke="#15D239">
                            <g id="badge">
                                <use id="Rectangle-9" mask="url(#mask-18)" xlink:href="#path-17"></use>
                                <use id="Oval-4" mask="url(#mask-20)" xlink:href="#path-19"></use>
                                <use id="Combined-Shape" mask="url(#mask-22)" xlink:href="#path-21"></use>
                            </g>
                        </g>
                        <rect id="Rectangle-8" fill="#15D239" x="12" y="8" width="9" height="2"></rect>
                        <rect id="Rectangle-8-Copy-3" fill="#15D239" opacity="0.3" x="12" y="11" width="7" height="2"></rect>
                        <use id="Rectangle-10" stroke="#15D239" mask="url(#mask-24)" stroke-width="2" xlink:href="#path-23"></use>
                    </g>
                </g>
            </g>
        </g>
    </g>
</svg>