<?xml version="1.0" encoding="UTF-8" standalone="no"?>
<svg width="26px" height="115px" viewBox="0 0 26 115" version="1.1" xmlns="http://www.w3.org/2000/svg" xmlns:xlink="http://www.w3.org/1999/xlink">
    <!-- Generator: Sketch 3.7 (28169) - http://www.bohemiancoding.com/sketch -->
    <title>input-year</title>
    <desc>Created with Sketch.</desc>
    <defs>
        <rect id="path-1" x="6" y="6" width="14" height="12"></rect>
        <mask id="mask-2" maskContentUnits="userSpaceOnUse" maskUnits="objectBoundingBox" x="0" y="0" width="14" height="12" fill="white">
            <use xlink:href="#path-1"></use>
        </mask>
        <rect id="path-3" x="7" y="7" width="13" height="1"></rect>
        <mask id="mask-4" maskContentUnits="userSpaceOnUse" maskUnits="objectBoundingBox" x="0" y="0" width="13" height="1" fill="white">
            <use xlink:href="#path-3"></use>
        </mask>
        <rect id="path-5" x="7" y="54" width="13" height="1"></rect>
        <mask id="mask-6" maskContentUnits="userSpaceOnUse" maskUnits="objectBoundingBox" x="0" y="0" width="13" height="1" fill="white">
            <use xlink:href="#path-5"></use>
        </mask>
        <rect id="path-7" x="6" y="53" width="14" height="12"></rect>
        <mask id="mask-8" maskContentUnits="userSpaceOnUse" maskUnits="objectBoundingBox" x="0" y="0" width="14" height="12" fill="white">
            <use xlink:href="#path-7"></use>
        </mask>
        <rect id="path-9" x="6" y="99" width="14" height="12"></rect>
        <mask id="mask-10" maskContentUnits="userSpaceOnUse" maskUnits="objectBoundingBox" x="0" y="0" width="14" height="12" fill="white">
            <use xlink:href="#path-9"></use>
        </mask>
        <rect id="path-11" x="7" y="100" width="12" height="1"></rect>
        <mask id="mask-12" maskContentUnits="userSpaceOnUse" maskUnits="objectBoundingBox" x="0" y="0" width="12" height="1" fill="white">
            <use xlink:href="#path-11"></use>
        </mask>
        <rect id="path-13" x="9" y="4" width="3" height="3"></rect>
        <mask id="mask-14" maskContentUnits="userSpaceOnUse" maskUnits="objectBoundingBox" x="0" y="0" width="3" height="3" fill="white">
            <use xlink:href="#path-13"></use>
        </mask>
        <rect id="path-15" x="9" y="51" width="3" height="3"></rect>
        <mask id="mask-16" maskContentUnits="userSpaceOnUse" maskUnits="objectBoundingBox" x="0" y="0" width="3" height="3" fill="white">
            <use xlink:href="#path-15"></use>
        </mask>
        <rect id="path-17" x="9" y="97" width="3" height="3"></rect>
        <mask id="mask-18" maskContentUnits="userSpaceOnUse" maskUnits="objectBoundingBox" x="0" y="0" width="3" height="3" fill="white">
            <use xlink:href="#path-17"></use>
        </mask>
        <rect id="path-19" x="14" y="4" width="3" height="3"></rect>
        <mask id="mask-20" maskContentUnits="userSpaceOnUse" maskUnits="objectBoundingBox" x="0" y="0" width="3" height="3" fill="white">
            <use xlink:href="#path-19"></use>
        </mask>
        <rect id="path-21" x="14" y="51" width="3" height="3"></rect>
        <mask id="mask-22" maskContentUnits="userSpaceOnUse" maskUnits="objectBoundingBox" x="0" y="0" width="3" height="3" fill="white">
            <use xlink:href="#path-21"></use>
        </mask>
        <rect id="path-23" x="14" y="97" width="3" height="3"></rect>
        <mask id="mask-24" maskContentUnits="userSpaceOnUse" maskUnits="objectBoundingBox" x="0" y="0" width="3" height="3" fill="white">
            <use xlink:href="#path-23"></use>
        </mask>
    </defs>
    <g id="phone" stroke="none" stroke-width="1" fill="none" fill-rule="evenodd">
        <g id="address2-copy-8"></g>
        <use id="Rectangle-76-Copy-3" stroke="#D8D8D8" mask="url(#mask-2)" stroke-width="2" xlink:href="#path-1"></use>
        <use id="Rectangle-98" stroke="#D8D8D8" mask="url(#mask-4)" stroke-width="2" xlink:href="#path-3"></use>
        <use id="Rectangle-99" stroke="#941469" mask="url(#mask-6)" stroke-width="2" xlink:href="#path-5"></use>
        <use id="Rectangle-76-Copy-4" stroke="#941469" mask="url(#mask-8)" stroke-width="2" xlink:href="#path-7"></use>
        <use id="Rectangle-76-Copy-5" stroke="#15D239" mask="url(#mask-10)" stroke-width="2" xlink:href="#path-9"></use>
        <use id="Rectangle-100" stroke="#15D239" mask="url(#mask-12)" stroke-width="2" xlink:href="#path-11"></use>
        <use id="Rectangle-77-Copy-6" stroke="#D8D8D8" mask="url(#mask-14)" stroke-width="2" xlink:href="#path-13"></use>
        <use id="Rectangle-77-Copy-7" stroke="#941469" mask="url(#mask-16)" stroke-width="2" xlink:href="#path-15"></use>
        <use id="Rectangle-77-Copy-8" stroke="#15D239" mask="url(#mask-18)" stroke-width="2" xlink:href="#path-17"></use>
        <use id="Rectangle-77-Copy-9" stroke="#D8D8D8" mask="url(#mask-20)" stroke-width="2" xlink:href="#path-19"></use>
        <use id="Rectangle-77-Copy-10" stroke="#941469" mask="url(#mask-22)" stroke-width="2" xlink:href="#path-21"></use>
        <use id="Rectangle-77-Copy-11" stroke="#15D239" mask="url(#mask-24)" stroke-width="2" xlink:href="#path-23"></use>
        <polygon id="Y" fill="#D8D8D8" points="13.0799512 11.640625 14.2713574 9.2890625 15.5760449 9.2890625 13.6815137 12.7773438 13.6815137 15 12.4783887 15 12.4783887 12.8164062 10.5838574 9.2890625 11.8963574 9.2890625"></polygon>
        <polygon id="Y" fill="#941469" points="13.0799512 58.640625 14.2713574 56.2890625 15.5760449 56.2890625 13.6815137 59.7773438 13.6815137 62 12.4783887 62 12.4783887 59.8164062 10.5838574 56.2890625 11.8963574 56.2890625"></polygon>
        <polygon id="Y" fill="#15D239" points="13.0799512 104.640625 14.2713574 102.289062 15.5760449 102.289062 13.6815137 105.777344 13.6815137 108 12.4783887 108 12.4783887 105.816406 10.5838574 102.289062 11.8963574 102.289062"></polygon>
    </g>
</svg>